<svg height="526" width="720" xmlns="http://www.w3.org/2000/svg">
<rect height="526" fill="#555" width="720"></rect>
<text fill="#7f7" font-family="Courier New" font-size="12" xml:space="preserve">
<tspan x="10" y="26">└─┬ grunt-contrib-stylus@1.2.0 </tspan>
<tspan x="10" y="42">  ├── async@1.5.2 </tspan>
<tspan x="10" y="58">  ├─┬ chalk@1.1.3 </tspan>
<tspan x="10" y="74">  │ ├── ansi-styles@2.2.1 </tspan>
<tspan x="10" y="90">  │ ├── escape-string-regexp@1.0.5 </tspan>
<tspan x="10" y="106">  │ ├─┬ has-ansi@2.0.0 </tspan>
<tspan x="10" y="122">  │ │ └── ansi-regex@2.1.1 </tspan>
<tspan x="10" y="138">  │ ├── strip-ansi@3.0.1 </tspan>
<tspan x="10" y="154">  │ └── supports-color@2.0.0 </tspan>
<tspan x="10" y="170">  ├── lodash@4.17.4 </tspan>
<tspan x="10" y="186">  ├── nib@1.1.2 </tspan>
<tspan x="10" y="202">  └─┬ stylus@0.54.5 </tspan>
<tspan x="10" y="218">    ├── css-parse@1.7.0 </tspan>
<tspan x="10" y="234">    ├─┬ debug@2.6.3 </tspan>
<tspan x="10" y="250">    │ └── ms@0.7.2 </tspan>
<tspan x="10" y="266">    ├─┬ glob@7.0.6 </tspan>
<tspan x="10" y="282">    │ ├── fs.realpath@1.0.0 </tspan>
<tspan x="10" y="298">    │ ├─┬ inflight@1.0.6 </tspan>
<tspan x="10" y="314">    │ │ └── wrappy@1.0.2 </tspan>
<tspan x="10" y="330">    │ ├── inherits@2.0.3 </tspan>
<tspan x="10" y="346">    │ ├─┬ minimatch@3.0.3 </tspan>
<tspan x="10" y="362">    │ │ └─┬ brace-expansion@1.1.6 </tspan>
<tspan x="10" y="378">    │ │   ├── balanced-match@0.4.2 </tspan>
<tspan x="10" y="394">    │ │   └── concat-map@0.0.1 </tspan>
<tspan x="10" y="410">    │ ├── once@1.4.0 </tspan>
<tspan x="10" y="426">    │ └── path-is-absolute@1.0.1 </tspan>
<tspan x="10" y="442">    ├─┬ mkdirp@0.5.1 </tspan>
<tspan x="10" y="458">    │ └── minimist@0.0.8 </tspan>
<tspan x="10" y="474">    ├── sax@0.5.8 </tspan>
<tspan x="10" y="490">    └─┬ source-map@0.1.43 </tspan>
<tspan x="10" y="506">      └── amdefine@1.0.1</tspan>
</text>
</svg>
